<?xml version="1.0" encoding="UTF-8"?>
<!DOCTYPE svg PUBLIC "-//W3C//DTD SVG 1.1//EN" "http://www.w3.org/Graphics/SVG/1.1/DTD/svg11.dtd">
<svg xmlns="http://www.w3.org/2000/svg" version="1.1" width="128px" height="128px" style="shape-rendering:geometricPrecision; text-rendering:geometricPrecision; image-rendering:optimizeQuality; fill-rule:evenodd; clip-rule:evenodd" xmlns:xlink="http://www.w3.org/1999/xlink">
<g><path style="opacity:1" fill="#1e1e1e" d="M -0.5,-0.5 C 42.1667,-0.5 84.8333,-0.5 127.5,-0.5C 127.5,42.1667 127.5,84.8333 127.5,127.5C 84.8333,127.5 42.1667,127.5 -0.5,127.5C -0.5,84.8333 -0.5,42.1667 -0.5,-0.5 Z"/></g>
<g><path style="opacity:1" fill="#050200" d="M 59.5,10.5 C 63.1419,11.0804 66.8086,11.5804 70.5,12C 75.3392,13.9213 80.0058,16.088 84.5,18.5C 84.427,20.0269 85.0937,21.0269 86.5,21.5C 88.1126,24.2861 89.946,26.9528 92,29.5C 93.6568,35.6764 95.4901,41.6764 97.5,47.5C 97.7261,51.4069 98.7261,55.0735 100.5,58.5C 101.11,59.391 101.443,60.391 101.5,61.5C 99.6523,64.4785 97.6523,64.8118 95.5,62.5C 95.2471,60.1727 95.9137,58.1727 97.5,56.5C 96.5754,55.4376 95.5754,55.4376 94.5,56.5C 93.8548,52.5679 93.8548,49.0679 94.5,46C 93.0068,43.5043 91.5068,41.0043 90,38.5C 83.8283,33.0285 76.8283,28.6951 69,25.5C 65.1849,25.6484 61.3516,25.6484 57.5,25.5C 52.1667,27.8333 46.8333,30.1667 41.5,32.5C 40.6433,33.7357 39.9766,35.069 39.5,36.5C 38.675,37.3857 37.675,37.719 36.5,37.5C 35.7249,41.7169 33.8915,45.3836 31,48.5C 30.1617,53.6428 29.3284,58.6428 28.5,63.5C 28.2172,62.7109 27.7172,62.0442 27,61.5C 26.79,63.0581 26.29,64.3915 25.5,65.5C 25.5,62.8333 25.5,60.1667 25.5,57.5C 27.0322,49.0497 29.3655,40.7163 32.5,32.5C 33.9713,29.4483 35.638,26.4483 37.5,23.5C 40.9378,21.2411 44.2711,18.7411 47.5,16C 49.743,14.8638 52.0763,14.0305 54.5,13.5C 56.674,13.2503 58.3406,12.2503 59.5,10.5 Z"/></g>
<g><path style="opacity:1" fill="#913f1f" d="M 100.5,30.5 C 100.664,33.1873 100.497,35.854 100,38.5C 99.6667,36.5 99.3333,34.5 99,32.5C 98.0218,35.6693 98.5218,38.5027 100.5,41C 98.4503,42.6356 97.4503,44.8023 97.5,47.5C 95.4901,41.6764 93.6568,35.6764 92,29.5C 89.946,26.9528 88.1126,24.2861 86.5,21.5C 86.573,19.9731 85.9063,18.9731 84.5,18.5C 80.0058,16.088 75.3392,13.9213 70.5,12C 66.8086,11.5804 63.1419,11.0804 59.5,10.5C 57.326,10.7497 55.6594,11.7497 54.5,13.5C 52.0763,14.0305 49.743,14.8638 47.5,16C 44.2711,18.7411 40.9378,21.2411 37.5,23.5C 37.8128,19.9581 37.4794,16.6248 36.5,13.5C 48.5991,2.19429 62.5991,-0.639043 78.5,5C 88.1626,11.4956 95.496,19.9956 100.5,30.5 Z"/></g>
<g><path style="opacity:1" fill="#f5f0ef" d="M 59.5,10.5 C 58.3406,12.2503 56.674,13.2503 54.5,13.5C 55.6594,11.7497 57.326,10.7497 59.5,10.5 Z"/></g>
<g><path style="opacity:1" fill="#c2b4b0" d="M 84.5,18.5 C 85.9063,18.9731 86.573,19.9731 86.5,21.5C 85.0937,21.0269 84.427,20.0269 84.5,18.5 Z"/></g>
<g><path style="opacity:1" fill="#9d340b" d="M 36.5,13.5 C 37.4794,16.6248 37.8128,19.9581 37.5,23.5C 35.638,26.4483 33.9713,29.4483 32.5,32.5C 30.9081,31.3984 30.0748,32.065 30,34.5C 29.6667,33.5 29.3333,32.5 29,31.5C 28.6667,31.8333 28.3333,32.1667 28,32.5C 27.5045,30.5273 27.3379,28.5273 27.5,26.5C 29.7601,21.6439 32.7601,17.3105 36.5,13.5 Z"/></g>
<g><path style="opacity:1" fill="#96492a" d="M 27.5,26.5 C 27.3379,28.5273 27.5045,30.5273 28,32.5C 28.3333,32.1667 28.6667,31.8333 29,31.5C 29.3333,32.5 29.6667,33.5 30,34.5C 30.0748,32.065 30.9081,31.3984 32.5,32.5C 29.3655,40.7163 27.0322,49.0497 25.5,57.5C 24.8333,55.5 24.1667,53.5 23.5,51.5C 24.5,51.5 25.5,51.5 26.5,51.5C 26.1743,48.6887 25.3409,46.022 24,43.5C 23.5,44.6667 22.6667,45.5 21.5,46C 21.8333,46.3333 22.1667,46.6667 22.5,47C 21.5632,47.6917 20.8966,47.525 20.5,46.5C 21.3642,39.2063 23.6976,32.5397 27.5,26.5 Z"/></g>
<g><path style="opacity:1" fill="#70250e" d="M 100.5,30.5 C 103.573,37.1129 105.573,44.1129 106.5,51.5C 105.761,51.369 105.094,51.5357 104.5,52C 104.446,54.0595 104.613,56.2261 105,58.5C 103.35,55.894 101.85,55.894 100.5,58.5C 98.7261,55.0735 97.7261,51.4069 97.5,47.5C 97.4503,44.8023 98.4503,42.6356 100.5,41C 98.5218,38.5027 98.0218,35.6693 99,32.5C 99.3333,34.5 99.6667,36.5 100,38.5C 100.497,35.854 100.664,33.1873 100.5,30.5 Z"/></g>
<g><path style="opacity:1" fill="#1b3100" d="M 94.5,56.5 C 91.538,57.0609 88.7047,58.0609 86,59.5C 85.5,59.3333 85,59.1667 84.5,59C 88.3508,56.1505 87.8508,55.3172 83,56.5C 82.0853,55.6721 81.4186,54.6721 81,53.5C 78.5814,56.8334 76.0814,57.1667 73.5,54.5C 77.3696,53.5744 81.2029,52.5744 85,51.5C 88.5219,55.8152 91.0219,55.4819 92.5,50.5C 91.1266,50.6567 89.7932,50.49 88.5,50C 90.4206,48.7592 90.754,47.2592 89.5,45.5C 86.9813,48.0406 83.9813,49.2073 80.5,49C 84.2249,48.4037 86.8915,46.4037 88.5,43C 87.3521,41.274 86.1855,41.4407 85,43.5C 84.4054,42.1011 84.5721,40.7678 85.5,39.5C 85.1924,38.6919 84.6924,38.0253 84,37.5C 82.7998,39.4116 81.1331,40.7449 79,41.5C 79.3879,45.9214 77.7212,49.2547 74,51.5C 74.0885,49.1383 74.9219,46.9716 76.5,45C 75.763,42.2007 74.9297,42.0341 74,44.5C 73.3013,41.6784 74.4679,40.0117 77.5,39.5C 81.9227,34.7489 81.4227,33.4156 76,35.5C 75.7778,33.6937 74.9445,32.027 73.5,30.5C 71.1048,35.994 70.1048,35.6606 70.5,29.5C 69.5,29.5 68.5,29.5 67.5,29.5C 67.6168,31.4835 66.9501,33.1502 65.5,34.5C 64.5344,32.604 64.2011,30.604 64.5,28.5C 63.325,28.281 62.325,28.6143 61.5,29.5C 60.8108,31.444 60.3108,33.444 60,35.5C 59,33.1667 58,30.8333 57,28.5C 55.977,29.6001 55.477,30.9334 55.5,32.5C 56.279,34.7758 57.279,36.9425 58.5,39C 57.6831,40.49 56.8498,41.99 56,43.5C 55.1157,39.2255 53.949,35.0588 52.5,31C 52.1667,30.8333 51.8333,30.6667 51.5,30.5C 50.8333,32.1667 50.1667,33.8333 49.5,35.5C 43.9964,33.1878 43.3297,34.3545 47.5,39C 49.0806,39.7065 50.5806,40.5399 52,41.5C 52.7472,44.9507 52.0805,45.284 50,42.5C 49.1669,45.478 50.0003,47.8113 52.5,49.5C 50.8466,50.7994 49.3466,50.4661 48,48.5C 47.3333,45.8333 46.6667,43.1667 46,40.5C 45.6667,40.8333 45.3333,41.1667 45,41.5C 41.2711,36.2203 39.9378,36.887 41,43.5C 39.3883,40.9211 37.8883,40.9211 36.5,43.5C 38.6416,46.0728 41.3082,47.9062 44.5,49C 41.2591,49.0258 38.4258,47.8592 36,45.5C 34.049,47.1371 34.2157,48.6371 36.5,50C 31.2839,51.5864 31.2839,53.0864 36.5,54.5C 41.9569,51.99 47.2902,52.3233 52.5,55.5C 48.825,55.4833 45.1583,55.4833 41.5,55.5C 37.856,55.7139 37.5226,56.8806 40.5,59C 40,59.1667 39.5,59.3333 39,59.5C 37.1551,58.2442 35.1551,57.2442 33,56.5C 31.274,57.6479 31.4407,58.8145 33.5,60C 32.0267,60.7096 31.3601,61.8762 31.5,63.5C 33.5824,63.528 35.4157,62.8613 37,61.5C 37.1667,61.8333 37.3333,62.1667 37.5,62.5C 35.8273,64.0863 33.8273,64.7529 31.5,64.5C 31.5,65.5 31.5,66.5 31.5,67.5C 35.0993,67.2619 35.4327,68.2619 32.5,70.5C 32.6236,71.1067 32.9569,71.44 33.5,71.5C 33.5,72.5 33.5,73.5 33.5,74.5C 34.0577,75.7899 35.0577,76.6232 36.5,77C 35.7476,77.6708 35.4142,78.5041 35.5,79.5C 30.9623,75.3153 28.629,69.982 28.5,63.5C 29.3284,58.6428 30.1617,53.6428 31,48.5C 33.8915,45.3836 35.7249,41.7169 36.5,37.5C 37.675,37.719 38.675,37.3857 39.5,36.5C 39.9766,35.069 40.6433,33.7357 41.5,32.5C 46.8333,30.1667 52.1667,27.8333 57.5,25.5C 61.3516,25.6484 65.1849,25.6484 69,25.5C 76.8283,28.6951 83.8283,33.0285 90,38.5C 91.5068,41.0043 93.0068,43.5043 94.5,46C 93.8548,49.0679 93.8548,52.5679 94.5,56.5 Z"/></g>
<g><path style="opacity:1" fill="#446d00" d="M 73.5,54.5 C 71.2646,54.7947 69.2646,54.4614 67.5,53.5C 67.3285,51.5082 67.9951,49.8415 69.5,48.5C 67.0843,45.3372 64.9177,42.0039 63,38.5C 60.6855,42.638 57.8521,46.3047 54.5,49.5C 53.6043,48.4937 52.9377,48.4937 52.5,49.5C 50.0003,47.8113 49.1669,45.478 50,42.5C 52.0805,45.284 52.7472,44.9507 52,41.5C 50.5806,40.5399 49.0806,39.7065 47.5,39C 43.3297,34.3545 43.9964,33.1878 49.5,35.5C 50.1667,33.8333 50.8333,32.1667 51.5,30.5C 51.8333,30.6667 52.1667,30.8333 52.5,31C 53.949,35.0588 55.1157,39.2255 56,43.5C 56.8498,41.99 57.6831,40.49 58.5,39C 57.279,36.9425 56.279,34.7758 55.5,32.5C 55.477,30.9334 55.977,29.6001 57,28.5C 58,30.8333 59,33.1667 60,35.5C 60.3108,33.444 60.8108,31.444 61.5,29.5C 62.325,28.6143 63.325,28.281 64.5,28.5C 64.2011,30.604 64.5344,32.604 65.5,34.5C 66.9501,33.1502 67.6168,31.4835 67.5,29.5C 68.5,29.5 69.5,29.5 70.5,29.5C 70.1048,35.6606 71.1048,35.994 73.5,30.5C 74.9445,32.027 75.7778,33.6937 76,35.5C 81.4227,33.4156 81.9227,34.7489 77.5,39.5C 74.4679,40.0117 73.3013,41.6784 74,44.5C 74.9297,42.0341 75.763,42.2007 76.5,45C 74.9219,46.9716 74.0885,49.1383 74,51.5C 77.7212,49.2547 79.3879,45.9214 79,41.5C 81.1331,40.7449 82.7998,39.4116 84,37.5C 84.6924,38.0253 85.1924,38.6919 85.5,39.5C 84.5721,40.7678 84.4054,42.1011 85,43.5C 86.1855,41.4407 87.3521,41.274 88.5,43C 86.8915,46.4037 84.2249,48.4037 80.5,49C 83.9813,49.2073 86.9813,48.0406 89.5,45.5C 90.754,47.2592 90.4206,48.7592 88.5,50C 89.7932,50.49 91.1266,50.6567 92.5,50.5C 91.0219,55.4819 88.5219,55.8152 85,51.5C 81.2029,52.5744 77.3696,53.5744 73.5,54.5 Z"/></g>
<g><path style="opacity:1" fill="#213b00" d="M 67.5,53.5 C 65.3455,51.3826 64.3455,48.716 64.5,45.5C 63.5,45.5 62.5,45.5 61.5,45.5C 61.7361,48.2257 60.9028,50.559 59,52.5C 57.6667,48.5 56.3333,48.5 55,52.5C 54.5172,51.552 54.3505,50.552 54.5,49.5C 57.8521,46.3047 60.6855,42.638 63,38.5C 64.9177,42.0039 67.0843,45.3372 69.5,48.5C 67.9951,49.8415 67.3285,51.5082 67.5,53.5 Z"/></g>
<g><path style="opacity:1" fill="#9e3d15" d="M 106.5,51.5 C 107.797,60.4955 107.797,69.4955 106.5,78.5C 102.08,77.2202 100.413,74.2202 101.5,69.5C 101.957,66.6907 101.957,64.024 101.5,61.5C 101.443,60.391 101.11,59.391 100.5,58.5C 101.85,55.894 103.35,55.894 105,58.5C 104.613,56.2261 104.446,54.0595 104.5,52C 105.094,51.5357 105.761,51.369 106.5,51.5 Z"/></g>
<g><path style="opacity:1" fill="#4d7b00" d="M 52.5,49.5 C 52.9377,48.4937 53.6043,48.4937 54.5,49.5C 54.3505,50.552 54.5172,51.552 55,52.5C 56.3333,48.5 57.6667,48.5 59,52.5C 60.9028,50.559 61.7361,48.2257 61.5,45.5C 62.5,45.5 63.5,45.5 64.5,45.5C 64.3455,48.716 65.3455,51.3826 67.5,53.5C 69.2646,54.4614 71.2646,54.7947 73.5,54.5C 76.0814,57.1667 78.5814,56.8334 81,53.5C 81.4186,54.6721 82.0853,55.6721 83,56.5C 87.8508,55.3172 88.3508,56.1505 84.5,59C 85,59.1667 85.5,59.3333 86,59.5C 88.7047,58.0609 91.538,57.0609 94.5,56.5C 94.4894,58.0174 93.8228,59.1841 92.5,60C 93.9733,60.7096 94.6399,61.8762 94.5,63.5C 92.4176,63.528 90.5843,62.8613 89,61.5C 88.8333,61.8333 88.6667,62.1667 88.5,62.5C 90.1792,63.782 92.0126,64.782 94,65.5C 94.1667,65.8333 94.3333,66.1667 94.5,66.5C 93.624,67.2508 92.624,67.7508 91.5,68C 92.5,69 93.5,70 94.5,71C 94.2716,71.3988 93.9382,71.5654 93.5,71.5C 91.9102,71.3718 90.5769,70.7051 89.5,69.5C 88.3414,63.909 85.0081,62.0757 79.5,64C 76.624,64.4379 73.9573,65.4379 71.5,67C 76.2669,67.2587 80.9336,66.9254 85.5,66C 85.9574,66.414 86.2907,66.914 86.5,67.5C 84.2338,68.3142 81.9005,68.8142 79.5,69C 81.3049,69.972 82.9716,71.1387 84.5,72.5C 85.8479,70.5387 87.1813,70.3721 88.5,72C 88.1667,72.3333 87.8333,72.6667 87.5,73C 89.596,73.7365 91.2627,74.9032 92.5,76.5C 91.448,76.3505 90.448,76.5172 89.5,77C 90.7112,77.8928 90.7112,78.7261 89.5,79.5C 88.103,77.3939 86.2696,75.7272 84,74.5C 83.7508,75.624 83.2508,76.624 82.5,77.5C 81.5726,75.8872 80.7393,74.2205 80,72.5C 79.3292,73.2524 78.4959,73.5858 77.5,73.5C 76.2921,72.7659 74.9587,72.4326 73.5,72.5C 73.5,71.1667 73.5,69.8333 73.5,68.5C 71.6334,68.045 69.8001,67.3784 68,66.5C 66.6739,66.7549 65.6739,67.4216 65,68.5C 64.2515,66.6675 63.2515,65.0009 62,63.5C 61.6174,64.056 61.1174,64.3893 60.5,64.5C 60.7361,61.7743 59.9028,59.441 58,57.5C 57.1072,56.2888 56.2739,56.2888 55.5,57.5C 56.2599,59.3604 57.2599,61.027 58.5,62.5C 58.1583,63.3382 57.4916,63.6716 56.5,63.5C 54.2874,60.7893 51.4541,59.1227 48,58.5C 42.0267,60.9935 42.5267,61.9935 49.5,61.5C 52.0983,62.5278 52.0983,63.5278 49.5,64.5C 46.5071,63.8654 43.5071,63.6987 40.5,64C 38.4211,66.72 36.0878,69.22 33.5,71.5C 32.9569,71.44 32.6236,71.1067 32.5,70.5C 35.4327,68.2619 35.0993,67.2619 31.5,67.5C 31.5,66.5 31.5,65.5 31.5,64.5C 33.8273,64.7529 35.8273,64.0863 37.5,62.5C 37.3333,62.1667 37.1667,61.8333 37,61.5C 35.4157,62.8613 33.5824,63.528 31.5,63.5C 31.3601,61.8762 32.0267,60.7096 33.5,60C 31.4407,58.8145 31.274,57.6479 33,56.5C 35.1551,57.2442 37.1551,58.2442 39,59.5C 39.5,59.3333 40,59.1667 40.5,59C 37.5226,56.8806 37.856,55.7139 41.5,55.5C 45.1583,55.4833 48.825,55.4833 52.5,55.5C 47.2902,52.3233 41.9569,51.99 36.5,54.5C 31.2839,53.0864 31.2839,51.5864 36.5,50C 34.2157,48.6371 34.049,47.1371 36,45.5C 38.4258,47.8592 41.2591,49.0258 44.5,49C 41.3082,47.9062 38.6416,46.0728 36.5,43.5C 37.8883,40.9211 39.3883,40.9211 41,43.5C 39.9378,36.887 41.2711,36.2203 45,41.5C 45.3333,41.1667 45.6667,40.8333 46,40.5C 46.6667,43.1667 47.3333,45.8333 48,48.5C 49.3466,50.4661 50.8466,50.7994 52.5,49.5 Z"/></g>
<g><path style="opacity:1" fill="#254000" d="M 76.5,58.5 C 84.4909,61.2476 84.1576,61.9143 75.5,60.5C 73.4759,62.3581 71.3092,64.0248 69,65.5C 68.8374,63.6133 69.6707,62.1133 71.5,61C 73.3146,60.2432 74.9812,59.4098 76.5,58.5 Z"/></g>
<g><path style="opacity:1" fill="#264300" d="M 69.5,55.5 C 70.5735,56.2506 70.7401,57.2506 70,58.5C 68.3333,60.8333 66.6667,63.1667 65,65.5C 65.1138,61.6012 66.6138,58.2678 69.5,55.5 Z"/></g>
<g><path style="opacity:1" fill="#243f00" d="M 56.5,63.5 C 54.3282,64.4215 52.6615,63.5882 51.5,61C 50.5632,60.3083 49.8966,60.475 49.5,61.5C 42.5267,61.9935 42.0267,60.9935 48,58.5C 51.4541,59.1227 54.2874,60.7893 56.5,63.5 Z"/></g>
<g><path style="opacity:1" fill="#1e3700" d="M 60.5,64.5 C 59.8333,63.8333 59.1667,63.1667 58.5,62.5C 57.2599,61.027 56.2599,59.3604 55.5,57.5C 56.2739,56.2888 57.1072,56.2888 58,57.5C 59.9028,59.441 60.7361,61.7743 60.5,64.5 Z"/></g>
<g><path style="opacity:1" fill="#1f3800" d="M 62.5,52.5 C 63.3636,53.6883 64.3636,54.8549 65.5,56C 64.5399,57.4194 63.7065,58.9194 63,60.5C 60.0544,57.8919 59.8877,55.2252 62.5,52.5 Z"/></g>
<g><path style="opacity:1" fill="#254100" d="M 49.5,64.5 C 51.1401,65.3201 52.8068,66.1534 54.5,67C 49.7331,67.2587 45.0664,66.9254 40.5,66C 38.6992,66.3173 38.3659,66.984 39.5,68C 47.1196,67.8804 47.453,69.3804 40.5,72.5C 37.6845,69.7431 37.0178,70.2431 38.5,74C 36.8659,74.4935 35.1992,74.6602 33.5,74.5C 33.5,73.5 33.5,72.5 33.5,71.5C 36.0878,69.22 38.4211,66.72 40.5,64C 43.5071,63.6987 46.5071,63.8654 49.5,64.5 Z"/></g>
<g><path style="opacity:1" fill="#1d3400" d="M 93.5,71.5 C 93.7845,73.4147 93.4511,75.0813 92.5,76.5C 91.2627,74.9032 89.596,73.7365 87.5,73C 87.8333,72.6667 88.1667,72.3333 88.5,72C 87.1813,70.3721 85.8479,70.5387 84.5,72.5C 82.9716,71.1387 81.3049,69.972 79.5,69C 81.9005,68.8142 84.2338,68.3142 86.5,67.5C 86.2907,66.914 85.9574,66.414 85.5,66C 80.9336,66.9254 76.2669,67.2587 71.5,67C 73.9573,65.4379 76.624,64.4379 79.5,64C 85.0081,62.0757 88.3414,63.909 89.5,69.5C 90.5769,70.7051 91.9102,71.3718 93.5,71.5 Z"/></g>
<g><path style="opacity:1" fill="#32120e" d="M 101.5,61.5 C 101.957,64.024 101.957,66.6907 101.5,69.5C 100.599,70.2905 99.9321,71.2905 99.5,72.5C 98.5272,73.7914 97.5272,73.7914 96.5,72.5C 95.513,69.2317 95.1796,65.8984 95.5,62.5C 97.6523,64.8118 99.6523,64.4785 101.5,61.5 Z"/></g>
<g><path style="opacity:1" fill="#548300" d="M 49.5,61.5 C 49.8966,60.475 50.5632,60.3083 51.5,61C 52.6615,63.5882 54.3282,64.4215 56.5,63.5C 57.4916,63.6716 58.1583,63.3382 58.5,62.5C 59.1667,63.1667 59.8333,63.8333 60.5,64.5C 61.1174,64.3893 61.6174,64.056 62,63.5C 63.2515,65.0009 64.2515,66.6675 65,68.5C 65.6739,67.4216 66.6739,66.7549 68,66.5C 69.8001,67.3784 71.6334,68.045 73.5,68.5C 73.5,69.8333 73.5,71.1667 73.5,72.5C 74.9587,72.4326 76.2921,72.7659 77.5,73.5C 78.6909,78.5582 81.6909,80.8915 86.5,80.5C 84.9223,81.2978 83.2556,81.7978 81.5,82C 85.2604,85.5761 84.7604,86.0761 80,83.5C 78.9196,81.0038 77.5862,78.6705 76,76.5C 75.5065,78.1341 75.3398,79.8008 75.5,81.5C 74.1411,80.9935 73.1411,79.9935 72.5,78.5C 71.8333,79.1667 71.1667,79.8333 70.5,80.5C 69.7084,79.3002 69.7084,77.9669 70.5,76.5C 72.8701,76.0175 73.5368,74.8508 72.5,73C 70.0106,72.0589 68.0106,72.5589 66.5,74.5C 65.6303,79.8776 65.6303,85.2109 66.5,90.5C 65.2502,90.4226 64.4169,89.756 64,88.5C 62.7485,90.0009 61.7485,91.6675 61,93.5C 60.6667,92.8333 60.3333,92.1667 60,91.5C 58.9887,92.3366 57.8221,92.67 56.5,92.5C 57.172,91.7326 58.0053,91.0659 59,90.5C 59.4986,86.8484 59.6653,83.1817 59.5,79.5C 60.3387,72.5829 57.672,70.7496 51.5,74C 54.4948,75.1641 56.1614,77.3308 56.5,80.5C 55.8333,80.5 55.1667,80.5 54.5,80.5C 53.2437,76.7443 52.2437,77.0777 51.5,81.5C 50.7022,79.9223 50.2022,78.2556 50,76.5C 48.2342,78.596 46.9009,80.9293 46,83.5C 44.1806,85.5363 42.3473,85.703 40.5,84C 41.8333,83.3333 43.1667,82.6667 44.5,82C 42.7444,81.7978 41.0777,81.2978 39.5,80.5C 43.7411,80.2221 46.7411,78.2221 48.5,74.5C 47.3112,73.5713 45.9778,73.238 44.5,73.5C 44.3276,77.9707 43.4943,78.3041 42,74.5C 39.8156,76.2878 37.649,77.9544 35.5,79.5C 35.4142,78.5041 35.7476,77.6708 36.5,77C 35.0577,76.6232 34.0577,75.7899 33.5,74.5C 35.1992,74.6602 36.8659,74.4935 38.5,74C 37.0178,70.2431 37.6845,69.7431 40.5,72.5C 47.453,69.3804 47.1196,67.8804 39.5,68C 38.3659,66.984 38.6992,66.3173 40.5,66C 45.0664,66.9254 49.7331,67.2587 54.5,67C 52.8068,66.1534 51.1401,65.3201 49.5,64.5C 52.0983,63.5278 52.0983,62.5278 49.5,61.5 Z"/></g>
<g><path style="opacity:1" fill="#363c00" d="M 70.5,76.5 C 69.3951,75.3995 68.0618,74.7329 66.5,74.5C 68.0106,72.5589 70.0106,72.0589 72.5,73C 73.5368,74.8508 72.8701,76.0175 70.5,76.5 Z"/></g>
<g><path style="opacity:1" fill="#2d4200" d="M 59.5,79.5 C 58.391,79.5569 57.391,79.8902 56.5,80.5C 56.1614,77.3308 54.4948,75.1641 51.5,74C 57.672,70.7496 60.3387,72.5829 59.5,79.5 Z"/></g>
<g><path style="opacity:1" fill="#812d0f" d="M 25.5,57.5 C 25.5,60.1667 25.5,62.8333 25.5,65.5C 25.6871,69.913 26.3538,74.2464 27.5,78.5C 27.3259,80.861 26.9926,83.1944 26.5,85.5C 28.1667,86.1667 29.8333,86.8333 31.5,87.5C 33.1684,92.1782 34.8351,96.8449 36.5,101.5C 35.6295,104.112 34.9628,106.779 34.5,109.5C 27.1369,101.651 22.3036,92.3178 20,81.5C 19.1156,75.1413 18.2822,68.9746 17.5,63C 18.7313,57.4389 19.7313,51.9389 20.5,46.5C 20.8966,47.525 21.5632,47.6917 22.5,47C 22.1667,46.6667 21.8333,46.3333 21.5,46C 22.6667,45.5 23.5,44.6667 24,43.5C 25.3409,46.022 26.1743,48.6887 26.5,51.5C 25.5,51.5 24.5,51.5 23.5,51.5C 24.1667,53.5 24.8333,55.5 25.5,57.5 Z"/></g>
<g><path style="opacity:1" fill="#6c230d" d="M 101.5,69.5 C 100.413,74.2202 102.08,77.2202 106.5,78.5C 104.075,84.1122 102.075,89.7788 100.5,95.5C 99.1196,94.2935 97.9529,94.6269 97,96.5C 96.6667,97.8333 96.3333,99.1667 96,100.5C 95.7599,98.1484 94.9265,96.1484 93.5,94.5C 93.3573,92.7376 93.6906,91.0709 94.5,89.5C 92.0266,87.9019 92.0266,86.4019 94.5,85C 94.1667,84.6667 93.8333,84.3333 93.5,84C 94.448,83.5172 95.448,83.3505 96.5,83.5C 96.2322,81.901 96.5655,80.5676 97.5,79.5C 98.6118,77.4006 99.2785,75.0673 99.5,72.5C 99.9321,71.2905 100.599,70.2905 101.5,69.5 Z"/></g>
<g><path style="opacity:1" fill="#203001" d="M 54.5,80.5 C 51.2701,82.6058 48.2701,84.9392 45.5,87.5C 44.1266,87.6567 42.7932,87.49 41.5,87C 39.1318,84.688 37.1318,82.188 35.5,79.5C 37.649,77.9544 39.8156,76.2878 42,74.5C 43.4943,78.3041 44.3276,77.9707 44.5,73.5C 45.9778,73.238 47.3112,73.5713 48.5,74.5C 46.7411,78.2221 43.7411,80.2221 39.5,80.5C 41.0777,81.2978 42.7444,81.7978 44.5,82C 43.1667,82.6667 41.8333,83.3333 40.5,84C 42.3473,85.703 44.1806,85.5363 46,83.5C 46.9009,80.9293 48.2342,78.596 50,76.5C 50.2022,78.2556 50.7022,79.9223 51.5,81.5C 52.2437,77.0777 53.2437,76.7443 54.5,80.5 Z"/></g>
<g><path style="opacity:1" fill="#c06946" d="M 27.5,78.5 C 28.5173,81.5436 29.8506,84.5436 31.5,87.5C 29.8333,86.8333 28.1667,86.1667 26.5,85.5C 26.9926,83.1944 27.3259,80.861 27.5,78.5 Z"/></g>
<g><path style="opacity:1" fill="#2b2e08" d="M 95.5,62.5 C 95.1796,65.8984 95.513,69.2317 96.5,72.5C 97.5272,73.7914 98.5272,73.7914 99.5,72.5C 99.2785,75.0673 98.6118,77.4006 97.5,79.5C 96.9022,76.2693 95.7356,75.936 94,78.5C 93.6667,78.1667 93.3333,77.8333 93,77.5C 91.8372,79.2852 91.1705,81.2852 91,83.5C 88.0584,86.2246 84.7251,88.2246 81,89.5C 79.5587,88.13 77.892,87.13 76,86.5C 75.5065,84.8659 75.3398,83.1992 75.5,81.5C 75.3398,79.8008 75.5065,78.1341 76,76.5C 77.5862,78.6705 78.9196,81.0038 80,83.5C 84.7604,86.0761 85.2604,85.5761 81.5,82C 83.2556,81.7978 84.9223,81.2978 86.5,80.5C 81.6909,80.8915 78.6909,78.5582 77.5,73.5C 78.4959,73.5858 79.3292,73.2524 80,72.5C 80.7393,74.2205 81.5726,75.8872 82.5,77.5C 83.2508,76.624 83.7508,75.624 84,74.5C 86.2696,75.7272 88.103,77.3939 89.5,79.5C 90.7112,78.7261 90.7112,77.8928 89.5,77C 90.448,76.5172 91.448,76.3505 92.5,76.5C 93.4511,75.0813 93.7845,73.4147 93.5,71.5C 93.9382,71.5654 94.2716,71.3988 94.5,71C 93.5,70 92.5,69 91.5,68C 92.624,67.7508 93.624,67.2508 94.5,66.5C 94.3333,66.1667 94.1667,65.8333 94,65.5C 92.0126,64.782 90.1792,63.782 88.5,62.5C 88.6667,62.1667 88.8333,61.8333 89,61.5C 90.5843,62.8613 92.4176,63.528 94.5,63.5C 94.6399,61.8762 93.9733,60.7096 92.5,60C 93.8228,59.1841 94.4894,58.0174 94.5,56.5C 95.5754,55.4376 96.5754,55.4376 97.5,56.5C 95.9137,58.1727 95.2471,60.1727 95.5,62.5 Z"/></g>
<g><path style="opacity:1" fill="#390f01" d="M 66.5,74.5 C 68.0618,74.7329 69.3951,75.3995 70.5,76.5C 69.7084,77.9669 69.7084,79.3002 70.5,80.5C 71.1667,79.8333 71.8333,79.1667 72.5,78.5C 73.1411,79.9935 74.1411,80.9935 75.5,81.5C 75.3398,83.1992 75.5065,84.8659 76,86.5C 77.892,87.13 79.5587,88.13 81,89.5C 84.7251,88.2246 88.0584,86.2246 91,83.5C 91.1705,81.2852 91.8372,79.2852 93,77.5C 93.3333,77.8333 93.6667,78.1667 94,78.5C 95.7356,75.936 96.9022,76.2693 97.5,79.5C 96.5655,80.5676 96.2322,81.901 96.5,83.5C 95.448,83.3505 94.448,83.5172 93.5,84C 93.8333,84.3333 94.1667,84.6667 94.5,85C 92.0266,86.4019 92.0266,87.9019 94.5,89.5C 93.6906,91.0709 93.3573,92.7376 93.5,94.5C 90.9145,96.8137 88.2478,99.147 85.5,101.5C 85.6775,100.305 86.0109,99.1385 86.5,98C 85.1153,96.4029 84.4486,94.5695 84.5,92.5C 82.5082,92.6715 80.8415,92.0049 79.5,90.5C 77.4228,91.9876 76.4228,93.9876 76.5,96.5C 75.5,96.5 74.5,96.5 73.5,96.5C 71.4862,94.1715 69.1528,92.1715 66.5,90.5C 65.6303,85.2109 65.6303,79.8776 66.5,74.5 Z"/></g>
<g><path style="opacity:1" fill="#466e00" d="M 66.5,90.5 C 69.1528,92.1715 71.4862,94.1715 73.5,96.5C 73.8333,97.1667 74.1667,97.8333 74.5,98.5C 73.1667,98.1667 71.8333,97.8333 70.5,97.5C 71.4363,98.9744 72.7697,99.9744 74.5,100.5C 75.3293,105.811 74.4959,105.811 72,100.5C 71.6667,101.833 71.3333,103.167 71,104.5C 70.7489,102.567 70.2489,100.734 69.5,99C 68.3902,99.1378 67.3902,99.6378 66.5,100.5C 66.7361,97.7743 65.9028,95.441 64,93.5C 63.8195,95.4884 63.9862,97.4884 64.5,99.5C 63.7784,99.9175 63.2784,100.584 63,101.5C 62.5831,100.244 61.7498,99.5774 60.5,99.5C 61.2178,97.8632 61.3845,96.1966 61,94.5C 59.6813,96.2872 58.848,98.2872 58.5,100.5C 57.7777,99.4489 56.7777,98.7822 55.5,98.5C 56.0577,97.2101 57.0577,96.3768 58.5,96C 57.8742,95.2496 57.3742,94.4162 57,93.5C 56.0027,95.3231 54.8361,96.9897 53.5,98.5C 51.5,98.5 50.5,99.5 50.5,101.5C 48.3544,101.304 48.1878,100.304 50,98.5C 52.6902,96.9731 54.8568,94.9731 56.5,92.5C 57.8221,92.67 58.9887,92.3366 60,91.5C 60.3333,92.1667 60.6667,92.8333 61,93.5C 61.7485,91.6675 62.7485,90.0009 64,88.5C 64.4169,89.756 65.2502,90.4226 66.5,90.5 Z"/></g>
<g><path style="opacity:1" fill="#2c0400" d="M 55.5,98.5 C 54.8333,98.5 54.1667,98.5 53.5,98.5C 54.8361,96.9897 56.0027,95.3231 57,93.5C 57.3742,94.4162 57.8742,95.2496 58.5,96C 57.0577,96.3768 56.0577,97.2101 55.5,98.5 Z"/></g>
<g><path style="opacity:1" fill="#3e0f00" d="M 70.5,97.5 C 69.2438,97.5386 68.2438,97.0386 67.5,96C 68.8333,95.3333 68.8333,94.6667 67.5,94C 69.2378,94.2271 70.2378,95.3938 70.5,97.5 Z"/></g>
<g><path style="opacity:1" fill="#2a0500" d="M 28.5,63.5 C 28.629,69.982 30.9623,75.3153 35.5,79.5C 37.1318,82.188 39.1318,84.688 41.5,87C 42.7932,87.49 44.1266,87.6567 45.5,87.5C 45.9258,88.5279 45.9258,89.8612 45.5,91.5C 43.7988,91.9662 42.2988,91.9662 41,91.5C 40.4092,92.4835 40.7425,93.1501 42,93.5C 42.772,93.6448 43.4387,93.9781 44,94.5C 44.7096,93.0267 45.8762,92.3601 47.5,92.5C 47.6215,96.1068 45.9548,98.2734 42.5,99C 43.8333,99.6667 43.8333,100.333 42.5,101C 43.4491,101.617 44.2825,101.451 45,100.5C 45.49,101.793 45.6567,103.127 45.5,104.5C 44.209,104.263 43.209,104.596 42.5,105.5C 40.2459,104.585 38.2459,103.252 36.5,101.5C 34.8351,96.8449 33.1684,92.1782 31.5,87.5C 29.8506,84.5436 28.5173,81.5436 27.5,78.5C 26.3538,74.2464 25.6871,69.913 25.5,65.5C 26.29,64.3915 26.79,63.0581 27,61.5C 27.7172,62.0442 28.2172,62.7109 28.5,63.5 Z"/></g>
<g><path style="opacity:1" fill="#2a0300" d="M 60.5,99.5 C 59.8333,99.8333 59.1667,100.167 58.5,100.5C 58.848,98.2872 59.6813,96.2872 61,94.5C 61.3845,96.1966 61.2178,97.8632 60.5,99.5 Z"/></g>
<g><path style="opacity:1" fill="#380b00" d="M 66.5,100.5 C 65.8333,100.167 65.1667,99.8333 64.5,99.5C 63.9862,97.4884 63.8195,95.4884 64,93.5C 65.9028,95.441 66.7361,97.7743 66.5,100.5 Z"/></g>
<g><path style="opacity:1" fill="#a64c27" d="M 93.5,94.5 C 94.9265,96.1484 95.7599,98.1484 96,100.5C 96.3333,99.1667 96.6667,97.8333 97,96.5C 97.9529,94.6269 99.1196,94.2935 100.5,95.5C 98.0052,101.16 95.0052,106.494 91.5,111.5C 90.5175,107.873 90.3509,104.207 91,100.5C 89.9326,101.191 88.7659,101.691 87.5,102C 88.8333,104 88.8333,106 87.5,108C 85.193,108.271 84.0264,107.105 84,104.5C 83.6174,105.056 83.1174,105.389 82.5,105.5C 83.2112,103.97 84.2112,102.637 85.5,101.5C 88.2478,99.147 90.9145,96.8137 93.5,94.5 Z"/></g>
<g><path style="opacity:1" fill="#330600" d="M 70.5,97.5 C 71.8333,97.8333 73.1667,98.1667 74.5,98.5C 74.5,99.1667 74.5,99.8333 74.5,100.5C 72.7697,99.9744 71.4363,98.9744 70.5,97.5 Z"/></g>
<g><path style="opacity:1" fill="#4c7800" d="M 64.5,99.5 C 65.1667,99.8333 65.8333,100.167 66.5,100.5C 66.5,100.833 66.5,101.167 66.5,101.5C 64.7973,102.66 64.1307,101.993 64.5,99.5 Z"/></g>
<g><path style="opacity:1" fill="#474505" d="M 66.5,101.5 C 68.8061,102.375 69.4728,103.708 68.5,105.5C 67.6364,105.298 66.6364,104.964 65.5,104.5C 66.1272,103.583 66.4606,102.583 66.5,101.5 Z"/></g>
<g><path style="opacity:1" fill="#491304" d="M 85.5,101.5 C 84.2112,102.637 83.2112,103.97 82.5,105.5C 79.9108,106.419 77.9108,108.086 76.5,110.5C 75.8333,110.5 75.5,110.833 75.5,111.5C 73.9731,111.427 72.9731,112.094 72.5,113.5C 67.9666,114.984 63.2999,115.65 58.5,115.5C 60.2726,114.108 62.2726,112.941 64.5,112C 66.5026,110.181 67.836,108.015 68.5,105.5C 69.4728,103.708 68.8061,102.375 66.5,101.5C 66.5,101.167 66.5,100.833 66.5,100.5C 67.3902,99.6378 68.3902,99.1378 69.5,99C 70.2489,100.734 70.7489,102.567 71,104.5C 71.3333,103.167 71.6667,101.833 72,100.5C 74.4959,105.811 75.3293,105.811 74.5,100.5C 77.1867,101.061 77.1867,100.394 74.5,98.5C 74.1667,97.8333 73.8333,97.1667 73.5,96.5C 74.5,96.5 75.5,96.5 76.5,96.5C 76.4228,93.9876 77.4228,91.9876 79.5,90.5C 80.8415,92.0049 82.5082,92.6715 84.5,92.5C 84.4486,94.5695 85.1153,96.4029 86.5,98C 86.0109,99.1385 85.6775,100.305 85.5,101.5 Z"/></g>
<g><path style="opacity:1" fill="#3f6600" d="M 74.5,98.5 C 77.1867,100.394 77.1867,101.061 74.5,100.5C 74.5,99.8333 74.5,99.1667 74.5,98.5 Z"/></g>
<g><path style="opacity:1" fill="#3e0f03" d="M 59.5,79.5 C 59.6653,83.1817 59.4986,86.8484 59,90.5C 58.0053,91.0659 57.172,91.7326 56.5,92.5C 54.8568,94.9731 52.6902,96.9731 50,98.5C 48.1878,100.304 48.3544,101.304 50.5,101.5C 50.3505,102.552 50.5172,103.552 51,104.5C 52.5398,100.426 53.8732,100.093 55,103.5C 55.4935,101.866 55.6602,100.199 55.5,98.5C 56.7777,98.7822 57.7777,99.4489 58.5,100.5C 58.5,100.833 58.5,101.167 58.5,101.5C 60.0672,102.681 60.9005,104.347 61,106.5C 61.5564,104.115 61.3897,101.782 60.5,99.5C 61.7498,99.5774 62.5831,100.244 63,101.5C 63.2784,100.584 63.7784,99.9175 64.5,99.5C 64.1307,101.993 64.7973,102.66 66.5,101.5C 66.4606,102.583 66.1272,103.583 65.5,104.5C 66.6364,104.964 67.6364,105.298 68.5,105.5C 67.836,108.015 66.5026,110.181 64.5,112C 62.2726,112.941 60.2726,114.108 58.5,115.5C 52.1515,113.666 46.8181,110.333 42.5,105.5C 43.209,104.596 44.209,104.263 45.5,104.5C 45.6567,103.127 45.49,101.793 45,100.5C 44.2825,101.451 43.4491,101.617 42.5,101C 43.8333,100.333 43.8333,99.6667 42.5,99C 45.9548,98.2734 47.6215,96.1068 47.5,92.5C 45.8762,92.3601 44.7096,93.0267 44,94.5C 43.4387,93.9781 42.772,93.6448 42,93.5C 40.7425,93.1501 40.4092,92.4835 41,91.5C 42.2988,91.9662 43.7988,91.9662 45.5,91.5C 45.9258,89.8612 45.9258,88.5279 45.5,87.5C 48.2701,84.9392 51.2701,82.6058 54.5,80.5C 55.1667,80.5 55.8333,80.5 56.5,80.5C 57.391,79.8902 58.391,79.5569 59.5,79.5 Z"/></g>
<g><path style="opacity:1" fill="#4e7b00" d="M 60.5,99.5 C 61.3897,101.782 61.5564,104.115 61,106.5C 60.9005,104.347 60.0672,102.681 58.5,101.5C 58.5,101.167 58.5,100.833 58.5,100.5C 59.1667,100.167 59.8333,99.8333 60.5,99.5 Z"/></g>
<g><path style="opacity:1" fill="#507e00" d="M 58.5,101.5 C 58.4784,103.8 57.4784,104.967 55.5,105C 56.1634,103.482 57.1634,102.315 58.5,101.5 Z"/></g>
<g><path style="opacity:1" fill="#518000" d="M 53.5,98.5 C 54.1667,98.5 54.8333,98.5 55.5,98.5C 55.6602,100.199 55.4935,101.866 55,103.5C 53.8732,100.093 52.5398,100.426 51,104.5C 50.5172,103.552 50.3505,102.552 50.5,101.5C 51.8333,100.833 52.8333,99.8333 53.5,98.5 Z"/></g>
<g><path style="opacity:1" fill="#400d07" d="M 53.5,98.5 C 52.8333,99.8333 51.8333,100.833 50.5,101.5C 50.5,99.5 51.5,98.5 53.5,98.5 Z"/></g>
<g><path style="opacity:1" fill="#b4755d" d="M 82.5,105.5 C 81.135,107.86 79.135,109.527 76.5,110.5C 77.9108,108.086 79.9108,106.419 82.5,105.5 Z"/></g>
<g><path style="opacity:1" fill="#e6e0df" d="M 75.5,111.5 C 75.0269,112.906 74.0269,113.573 72.5,113.5C 72.9731,112.094 73.9731,111.427 75.5,111.5 Z"/></g>
<g><path style="opacity:1" fill="#722106" d="M 91.5,111.5 C 89.3324,114.5 86.6657,117 83.5,119C 78.8333,121 74.1667,123 69.5,125C 65.2475,125.298 61.2475,125.131 57.5,124.5C 59.3737,123.358 61.207,122.025 63,120.5C 63.3333,120.833 63.6667,121.167 64,121.5C 64.2189,120.062 64.7189,118.729 65.5,117.5C 67.667,117.863 70.0003,118.363 72.5,119C 71.2475,117.172 71.2475,115.339 72.5,113.5C 74.0269,113.573 75.0269,112.906 75.5,111.5C 75.5,110.833 75.8333,110.5 76.5,110.5C 79.135,109.527 81.135,107.86 82.5,105.5C 83.1174,105.389 83.6174,105.056 84,104.5C 84.0264,107.105 85.193,108.271 87.5,108C 88.8333,106 88.8333,104 87.5,102C 88.7659,101.691 89.9326,101.191 91,100.5C 90.3509,104.207 90.5175,107.873 91.5,111.5 Z"/></g>
<g><path style="opacity:1" fill="#963814" d="M 36.5,101.5 C 38.2459,103.252 40.2459,104.585 42.5,105.5C 46.8181,110.333 52.1515,113.666 58.5,115.5C 63.2999,115.65 67.9666,114.984 72.5,113.5C 71.2475,115.339 71.2475,117.172 72.5,119C 70.0003,118.363 67.667,117.863 65.5,117.5C 64.7189,118.729 64.2189,120.062 64,121.5C 63.6667,121.167 63.3333,120.833 63,120.5C 61.207,122.025 59.3737,123.358 57.5,124.5C 47.4666,123.134 39.8,118.134 34.5,109.5C 34.9628,106.779 35.6295,104.112 36.5,101.5 Z"/></g>
</svg>
